# This file uses centimeters as units for non-parametric coordinates.

g default
v -0.491024 0.483436 0.491023
v 0.491023 0.483436 0.491023
v -0.391609 0.767139 0.391609
v 0.391609 0.767139 0.391609
v -0.391609 0.767139 -0.391609
v 0.391609 0.767139 -0.391609
v -0.491024 0.483436 -0.491023
v 0.491023 0.483436 -0.491023
v 0.000000 0.502630 0.375475
v 0.000000 0.502630 -0.375475
v 0.000000 0.751831 -0.299455
v 0.000000 0.751831 0.299455
v -0.491024 0.564999 0.491023
v 0.000000 0.564999 0.375475
v 0.491023 0.564999 0.491023
v 0.491023 0.564999 -0.491023
v 0.000000 0.564999 -0.375475
v -0.491024 0.564999 -0.491023
v -0.299456 0.751831 0.000000
v 0.299454 0.751831 0.000000
v 0.375474 0.564999 0.000000
v 0.375474 0.502630 0.000000
v -0.375475 0.502630 0.000000
v -0.375475 0.564999 0.000000
v 0.196984 0.783517 -0.342340
v 0.342340 0.783516 0.196983
v 0.772120 0.811835 -0.208099
v -0.342340 0.783517 -0.196984
v -0.208099 0.811835 -0.772120
v -0.772120 0.811835 0.208099
v -0.196983 0.783516 0.342340
v 0.208100 0.811835 0.772120
v 0.139394 1.025782 -0.242254
v 0.242254 1.025782 0.139394
v 0.404927 1.028572 -0.109135
v -0.242254 1.025782 -0.139394
v -0.109135 1.028572 -0.404928
v -0.404928 1.028572 0.109134
v -0.139393 1.025782 0.242254
v 0.109136 1.028572 0.404927
v -0.064657 1.093515 -0.369649
v 0.369648 1.093515 -0.064658
v 0.327998 1.098146 -0.467068
v -0.369649 1.093515 0.064656
v -0.467070 1.098147 -0.327999
v -0.328000 1.098146 0.467068
v 0.064658 1.093515 0.369647
v 0.467069 1.098146 0.327997
v -0.044073 1.328568 -0.251967
v 0.251965 1.328568 -0.044074
v 0.215051 1.330009 -0.306232
v -0.251966 1.328568 0.044072
v -0.306232 1.330009 -0.215052
v -0.215052 1.330009 0.306231
v 0.044073 1.328568 0.251965
v 0.306232 1.330009 0.215050
v -0.259424 1.427497 -0.234950
v 0.234949 1.427497 -0.259424
v -0.025584 1.429831 -0.516795
v -0.234950 1.427498 0.259423
v -0.516797 1.429831 0.025584
v 0.025583 1.429831 0.516796
v 0.259424 1.427498 0.234949
v 0.516796 1.429831 -0.025586
v -0.109234 1.667751 -0.098928
v -0.000000 1.915485 -0.000000
v 0.098927 1.667751 -0.109233
v -0.010066 1.607799 -0.203302
v -0.098929 1.667751 0.109232
v -0.203303 1.607800 0.010064
v 0.010064 1.607800 0.203302
v 0.109231 1.667751 0.098927
v 0.203301 1.607799 -0.010065
v -0.148983 -0.000000 0.089889
v -0.089068 -0.000000 0.149805
v -0.096384 1.395440 0.058327
v -0.057506 1.395440 0.097204
v 0.150626 -0.000000 0.089889
v 0.090709 -0.000000 0.149805
v 0.098025 1.395440 0.058327
v 0.059147 1.395440 0.097204
v -0.096384 1.395440 -0.058326
v -0.057506 1.395440 -0.097204
v -0.148983 -0.000000 -0.089889
v -0.089068 -0.000000 -0.149805
v 0.059147 1.395440 -0.097204
v 0.098025 1.395440 -0.058326
v 0.150626 -0.000000 -0.089889
v 0.090709 -0.000000 -0.149805
v -0.119858 0.697720 0.072412
v -0.119858 0.697720 -0.072412
v -0.071591 0.697720 -0.120679
v 0.073232 0.697720 -0.120679
v 0.121499 0.697720 -0.072412
v 0.121499 0.697720 0.072412
v 0.073232 0.697720 0.120679
v -0.071591 0.697720 0.120679
v -0.148983 0.090055 0.089889
v -0.089068 0.090055 0.149805
v 0.090709 0.090055 0.149805
v 0.150626 0.090055 0.089889
v 0.150626 0.090055 -0.089889
v 0.090709 0.090055 -0.149805
v -0.089068 0.090055 -0.149805
v -0.148983 0.090055 -0.089889
v -0.135657 0.369625 -0.081893
v -0.081072 0.369625 -0.136479
v 0.082713 0.369625 -0.136479
v 0.137299 0.369625 -0.081893
v 0.137299 0.369625 0.081893
v 0.082713 0.369625 0.136479
v -0.081072 0.369625 0.136479
v -0.135657 0.369625 0.081893
v -0.061731 1.093785 0.104247
v -0.103426 1.093785 0.062552
v -0.103426 1.093785 -0.062552
v -0.061731 1.093785 -0.104247
v 0.063372 1.093785 -0.104247
v 0.105067 1.093785 -0.062552
v 0.105067 1.093785 0.062552
v 0.063372 1.093785 0.104247
v -0.187239 0.000000 0.227537
v -0.226716 0.000000 0.188060
v -0.187239 0.030121 0.227537
v -0.226716 0.030121 0.188060
v 0.223269 0.000000 0.193148
v 0.193967 0.000000 0.222450
v 0.223269 0.026169 0.193148
v 0.193967 0.026169 0.222450
v 0.226097 0.028365 -0.190321
v 0.191140 0.028365 -0.225277
v 0.226097 0.000000 -0.190321
v 0.191140 0.000000 -0.225277
v -0.190659 0.027464 -0.224117
v -0.223297 0.027464 -0.191480
v -0.190659 0.000000 -0.224117
v -0.223297 0.000000 -0.191480
vt 0.511248 0.014955
vt 0.511250 0.014964
vt 0.446963 0.329094
vt 0.446950 0.329127
vt 0.446990 0.329081
vt 0.446963 0.329094
vt 0.511250 0.014964
vt 0.026379 0.014982
vt 0.511251 0.014964
vt 0.460622 0.160009
vt 0.026377 0.015008
vt 0.077027 0.160046
vt 0.268816 0.036164
vt 0.268816 0.036164
vt 0.262078 0.381619
vt 0.262078 0.381620
vt 0.512918 0.054183
vt 0.268817 0.066240
vt 0.024715 0.054210
vt 0.024715 0.054210
vt 0.512918 0.054192
vt 0.268817 0.066240
vt 0.024715 0.054236
vt 0.512917 0.054192
vt 0.268828 0.164072
vt 0.262128 0.381690
vt 0.228918 0.986193
vt 0.262053 0.381613
vt 0.268821 0.164063
vt 0.268817 0.066240
vt 0.268816 0.036164
vt 0.268815 0.036173
vt 0.268818 0.066249
vt 0.321455 0.405436
vt 0.039094 0.388491
vt 0.321455 0.405436
vt 0.039094 0.388491
vt 0.321455 0.405436
vt 0.039094 0.388491
vt 0.321455 0.405436
vt 0.039094 0.388492
vt 0.483806 0.670164
vt 0.624843 0.680413
vt 0.483806 0.670164
vt 0.624845 0.680414
vt 0.483806 0.670164
vt 0.624844 0.680413
vt 0.483806 0.670164
vt 0.624844 0.680413
vt 0.795304 0.840919
vt 0.600492 0.840919
vt 0.795304 0.840919
vt 0.600492 0.840919
vt 0.795304 0.840919
vt 0.600492 0.840919
vt 0.795304 0.840919
vt 0.600492 0.840919
vt 0.862908 0.808749
vt 0.988140 0.817893
vt 0.862908 0.808750
vt 0.988128 0.817924
vt 0.862902 0.808707
vt 0.988137 0.817906
vt 0.862906 0.808744
vt 0.988140 0.817888
vt 0.228895 0.697010
vt 0.054025 0.687843
vt 0.228895 0.697010
vt 0.054025 0.687843
vt 0.228895 0.697010
vt 0.054025 0.687843
vt 0.228895 0.697010
vt 0.054025 0.687843
vt 0.228907 0.848559
vt 0.157447 0.826398
vt 0.228907 0.848558
vt 0.157447 0.826398
vt 0.228907 0.848559
vt 0.157447 0.826398
vt 0.228907 0.848558
vt 0.157447 0.826398
vt 0.077019 0.160023
vt 0.268821 0.164063
vt 0.077019 0.160023
vt 0.183284 0.541279
vt 0.321455 0.541279
vt 0.321455 0.541279
vt 0.183283 0.541279
vt 0.321455 0.541279
vt 0.183283 0.541279
vt 0.321455 0.541279
vt 0.183284 0.541279
vt 0.668647 0.969665
vt 0.795304 0.969665
vt 0.795304 0.969665
vt 0.668647 0.969665
vt 0.795304 0.969665
vt 0.668647 0.969665
vt 0.795304 0.969665
vt 0.668647 0.969665
vt 0.906884 0.681368
vt 0.757250 0.769571
vt 0.757256 0.769546
vt 0.906907 0.681372
vt 0.757268 0.769463
vt 0.906957 0.681354
vt 0.757251 0.769568
vt 0.906888 0.681372
vt 0.526500 0.532762
vt 0.368127 0.642374
vt 0.368127 0.642374
vt 0.526500 0.532762
vt 0.368127 0.642374
vt 0.526500 0.532762
vt 0.368127 0.642374
vt 0.526499 0.532762
vt 0.576662 0.173227
vt 0.351953 0.344067
vt 0.351969 0.344054
vt 0.576640 0.173164
vt 0.352003 0.344084
vt 0.576596 0.173094
vt 0.351970 0.344053
vt 0.576640 0.173165
vt 0.460622 0.160009
vt 0.268820 0.164063
vt 0.077019 0.160023
vt 0.585534 0.388492
vt 0.459371 0.541279
vt 0.342460 0.674426
vt 0.179166 0.605086
vt 0.127287 0.173172
vt 0.070347 0.367820
vt 0.585534 0.388491
vt 0.459371 0.541279
vt 0.342460 0.674426
vt 0.179166 0.605086
vt 0.127265 0.173209
vt 0.070369 0.367869
vt 0.070369 0.367871
vt 0.127265 0.173210
vt 0.070413 0.368027
vt 0.127222 0.173341
vt 0.585534 0.388491
vt 0.459371 0.541279
vt 0.460629 0.160004
vt 0.024715 0.054210
vt 0.026380 0.014982
vt 0.342460 0.674426
vt 0.179166 0.605086
vt 0.987593 0.840919
vt 0.921932 0.969665
vt 0.459371 0.541279
vt 0.585534 0.388491
vt 0.987593 0.840919
vt 0.921931 0.969665
vt 0.737677 0.817910
vt 0.583783 0.778458
vt 0.987593 0.840919
vt 0.921931 0.969665
vt 0.737677 0.817906
vt 0.583783 0.778449
vt 0.987593 0.840919
vt 0.921931 0.969665
vt 0.737665 0.817790
vt 0.583795 0.778243
vt 0.179165 0.605086
vt 0.342460 0.674427
vt 0.737674 0.817882
vt 0.583786 0.778402
vt 0.460622 0.160009
vt 0.512917 0.054192
vt 0.026379 0.014982
vt 0.403764 0.687816
vt 0.403764 0.687816
vt 0.403764 0.687815
vt 0.403764 0.687815
vt 0.300363 0.826384
vt 0.300363 0.826384
vt 0.228918 0.986193
vt 0.300363 0.826384
vt 0.228918 0.986192
vt 0.300363 0.826384
vt 0.228918 0.986192
vt 0.927032 0.244104
vt 0.852024 0.244104
vt 0.848359 0.131296
vt 0.930692 0.131296
vt 0.848362 0.131310
vt 0.930689 0.131310
vt 0.927030 0.244110
vt 0.852026 0.244110
vt 0.927021 0.244132
vt 0.852035 0.244132
vt 0.848372 0.131359
vt 0.930680 0.131359
vt 0.927041 0.244081
vt 0.852015 0.244081
vt 0.848349 0.131246
vt 0.930702 0.131246
vt 0.732795 0.144544
vt 0.773212 0.144544
vt 0.771419 0.271825
vt 0.734597 0.271825
vt 0.732818 0.144544
vt 0.773190 0.144544
vt 0.771404 0.271825
vt 0.734623 0.271825
vt 0.771403 0.271825
vt 0.734613 0.271825
vt 0.732812 0.144544
vt 0.773195 0.144544
vt 0.771408 0.271825
vt 0.734608 0.271825
vt 0.732807 0.144544
vt 0.773201 0.144544
vt 0.918192 0.536367
vt 0.860884 0.536367
vt 0.856362 0.376903
vt 0.922703 0.376903
vt 0.767070 0.601531
vt 0.738968 0.601531
vt 0.736747 0.421651
vt 0.769279 0.421651
vt 0.856372 0.376891
vt 0.922692 0.376891
vt 0.918183 0.536305
vt 0.860893 0.536305
vt 0.767074 0.601531
vt 0.738965 0.601531
vt 0.736743 0.421651
vt 0.769283 0.421651
vt 0.918176 0.536258
vt 0.860899 0.536258
vt 0.856380 0.376882
vt 0.922685 0.376882
vt 0.736764 0.421651
vt 0.769286 0.421651
vt 0.767086 0.601531
vt 0.738991 0.601531
vt 0.918185 0.536319
vt 0.860891 0.536319
vt 0.856370 0.376894
vt 0.922695 0.376894
vt 0.736733 0.421651
vt 0.769292 0.421651
vt 0.767081 0.601531
vt 0.738955 0.601531
vt 0.741331 0.018545
vt 0.764645 0.018545
vt 0.764645 0.031275
vt 0.741331 0.031275
vt 0.848168 0.019625
vt 0.930500 0.019625
vt 0.741480 0.018545
vt 0.764496 0.018545
vt 0.764496 0.031275
vt 0.741480 0.031275
vt 0.848558 0.019722
vt 0.930866 0.019722
vt 0.764579 0.031275
vt 0.741397 0.031275
vt 0.741397 0.018545
vt 0.764579 0.018545
vt 0.930678 0.019646
vt 0.848351 0.019646
vt 0.764545 0.031275
vt 0.741431 0.031275
vt 0.741431 0.018545
vt 0.764545 0.018545
vt 0.848542 0.019548
vt 0.930896 0.019548
vt 0.766135 0.736189
vt 0.739910 0.736189
vt 0.862823 0.655742
vt 0.916260 0.655742
vt 0.766125 0.736189
vt 0.739922 0.736189
vt 0.916251 0.655643
vt 0.862832 0.655643
vt 0.766129 0.736189
vt 0.739918 0.736189
vt 0.862838 0.655568
vt 0.916245 0.655568
vt 0.766147 0.736189
vt 0.739951 0.736189
vt 0.862830 0.655665
vt 0.916253 0.655665
vt 0.790820 0.030908
vt 0.790821 0.019625
vt 0.988256 0.019548
vt 0.988256 0.030833
vt 0.790758 0.031001
vt 0.790757 0.019722
vt 0.988320 0.019625
vt 0.988319 0.030908
vt 0.988382 0.019722
vt 0.988383 0.031001
vt 0.790821 0.030928
vt 0.790821 0.019646
vt 0.988319 0.019646
vt 0.988319 0.030928
vt 0.790884 0.030833
vt 0.790884 0.019548
vn -0.035069 -0.622426 0.781893
vn -0.000000 0.269866 0.962898
vn 0.644625 0.410997 0.644624
vn 0.698955 0.106220 0.707233
vn -0.030347 0.789501 -0.612999
vn 0.000001 1.000000 0.000001
vn 0.497925 0.670669 -0.549795
vn 0.644625 0.410997 -0.644624
vn -0.000000 0.269866 -0.962898
vn 0.035070 -0.622426 -0.781892
vn 0.707234 0.106220 -0.698955
vn 0.781892 -0.622426 0.035069
vn 0.962898 0.269867 -0.000000
vn -0.644624 0.410996 -0.644625
vn -0.962898 0.269865 0.000000
vn -0.781892 -0.622426 -0.035070
vn -0.698954 0.106220 -0.707235
vn -0.612998 0.789502 0.030344
vn -0.549793 0.670668 -0.497928
vn -0.644624 0.410996 0.644625
vn -0.707233 0.106226 0.698954
vn -0.707107 0.000000 0.707107
vn -0.000000 0.000000 1.000000
vn 0.707107 0.000000 0.707106
vn 1.000000 0.000000 0.000000
vn 0.707107 0.000000 -0.707106
vn 0.000000 0.000000 -1.000000
vn -0.707107 0.000000 -0.707107
vn -1.000000 0.000000 0.000000
vn 0.030347 0.789502 0.612997
vn -0.497927 0.670668 0.549794
vn 0.612996 0.789503 -0.030347
vn 0.549794 0.670669 0.497925
vn 0.879608 -0.451434 -0.149988
vn 0.820648 0.400240 0.407855
vn 0.407855 0.400243 -0.820646
vn -0.149988 -0.451432 -0.879610
vn -0.820646 0.400245 -0.407854
vn -0.407854 0.400245 0.820645
vn -0.879610 -0.451430 0.149990
vn 0.149987 -0.451431 0.879610
vn 0.718802 0.669356 -0.187845
vn 0.902719 0.002002 0.430227
vn 0.430228 0.002004 -0.902718
vn -0.187846 0.669355 -0.718803
vn -0.902718 0.002001 -0.430227
vn -0.430227 0.002002 0.902719
vn -0.718803 0.669355 0.187848
vn 0.187846 0.669356 0.718802
vn 0.486216 -0.186174 -0.853776
vn 0.957823 0.271401 -0.094425
vn -0.094423 0.271399 -0.957824
vn -0.853776 -0.186175 -0.486215
vn -0.957824 0.271399 0.094424
vn 0.094425 0.271401 0.957823
vn -0.486214 -0.186175 0.853777
vn 0.853777 -0.186173 0.486215
vn 0.539890 0.376707 -0.752736
vn 0.954597 -0.107100 -0.277982
vn -0.277978 -0.107096 -0.954599
vn -0.752737 0.376706 -0.539889
vn -0.954597 -0.107100 0.277982
vn 0.277981 -0.107101 0.954597
vn -0.539890 0.376705 0.752737
vn 0.752739 0.376702 0.539888
vn -0.187483 -0.013561 -0.982174
vn 0.676758 0.427984 -0.599023
vn -0.599020 0.427985 -0.676760
vn -0.982174 -0.013568 0.187486
vn -0.676760 0.427982 0.599022
vn 0.599023 0.427985 0.676758
vn 0.187486 -0.013567 0.982174
vn 0.982173 -0.013563 -0.187488
vn 0.242213 0.053382 0.968753
vn -0.242215 0.053381 0.968753
vn -0.173283 0.131545 0.976048
vn 0.175863 0.119735 0.977106
vn 0.174503 0.126211 -0.976534
vn -0.175083 0.123529 -0.976774
vn -0.242214 0.053381 -0.968753
vn 0.242213 0.053382 -0.968753
vn 0.968753 0.053382 -0.242215
vn 0.968753 0.053382 0.242215
vn 0.977105 0.119735 0.175865
vn 0.976534 0.126212 -0.174505
vn -0.968754 0.053381 0.242212
vn -0.968754 0.053381 -0.242212
vn -0.976774 0.123528 -0.175080
vn -0.976048 0.131544 0.173280
vn -0.969574 0.038142 0.241809
vn -0.969574 0.038142 -0.241809
vn -0.968960 0.049893 -0.242133
vn -0.968960 0.049893 0.242132
vn -0.241809 0.038143 -0.969574
vn -0.242133 0.049894 -0.968959
vn 0.242133 0.049894 -0.968959
vn 0.241809 0.038142 -0.969574
vn 0.969573 0.038142 -0.241812
vn 0.968959 0.049894 -0.242134
vn 0.969573 0.038142 0.241812
vn 0.968959 0.049894 0.242134
vn 0.242133 0.049894 0.968959
vn 0.241809 0.038142 0.969574
vn -0.241809 0.038143 0.969574
vn -0.242133 0.049894 0.968959
vn -0.897560 0.000000 -0.440892
vn 0.440887 0.000000 0.897563
vn 0.107164 0.611836 0.783692
vn -0.783691 0.611835 -0.107169
vn 0.206880 0.000000 0.978366
vn -0.186891 0.000000 0.982381
vn -0.454684 0.000000 0.890653
vn 0.890660 0.000000 -0.454671
vn 0.800173 0.589867 -0.108534
vn -0.108545 0.589867 0.800172
vn 0.982382 0.000000 -0.186886
vn 0.980227 0.000000 0.197876
vn -0.107881 0.602680 -0.790657
vn 0.790660 0.602678 0.107871
vn 0.894013 0.000000 0.448041
vn -0.448053 0.000000 -0.894007
vn 0.193335 0.000000 -0.981133
vn -0.197880 0.000000 -0.980226
vn -0.794453 0.597612 0.108185
vn 0.108178 0.597613 -0.794454
vn 0.451086 0.000000 -0.892481
vn -0.892477 0.000000 0.451093
vn -0.981132 0.000000 0.193337
vn -0.978366 0.000000 -0.206881
vn -0.241625 0.026031 0.970021
vn -0.970021 0.026031 0.241624
vn -0.970021 0.026031 -0.241624
vn -0.241625 0.026031 -0.970021
vn 0.241624 0.026030 -0.970021
vn 0.970020 0.026029 -0.241628
vn 0.970020 0.026029 0.241627
vn 0.241624 0.026030 0.970021
s 1
g Tree3
f 12/83/1 14/18/2 15/172/3 4/171/4
f 68/183/5 66/184/6 67/74/7
f 16/20/8 17/22/9 11/126/10 6/127/11
f 20/29/12 21/30/13 16/21/8 6/10/11
f 18/23/14 24/33/15 19/25/16 5/12/17
f 5/125/17 11/126/10 17/22/9 18/24/14
f 70/181/18 66/182/6 65/76/19
f 13/147/20 14/18/2 12/83/1 3/84/21
f 1/148/22 9/13/23 14/18/2 13/147/20
f 15/172/3 14/18/2 9/13/23 2/2/24
f 21/30/13 22/31/25 8/9/26 16/21/8
f 10/14/27 17/22/9 16/20/8 8/8/26
f 18/24/14 17/22/9 10/14/27 7/7/28
f 7/11/28 23/32/29 24/33/15 18/23/14
f 71/179/30 66/180/6 69/78/31
f 73/178/32 66/27/6 72/80/33
f 15/19/3 21/30/13 20/29/12 4/82/4
f 2/173/24 22/31/25 21/30/13 15/19/3
f 24/33/15 23/32/29 1/1/22 13/17/20
f 19/25/16 24/33/15 13/17/20 3/146/21
f 20/28/12 6/133/11 27/132/34 26/118/35
f 6/6/11 11/15/10 25/123/36 27/124/34
f 11/15/10 5/139/17 29/138/37 25/123/36
f 5/5/17 19/26/16 28/121/38 29/122/37
f 3/3/21 12/16/1 31/119/39 30/120/40
f 19/26/16 3/142/21 30/143/40 28/121/38
f 12/16/1 4/140/4 32/141/41 31/119/39
f 4/4/4 20/28/12 26/118/35 32/117/41
f 26/34/35 27/128/34 35/129/42 34/86/43
f 27/35/34 25/36/36 33/91/44 35/92/42
f 25/36/36 29/134/37 37/135/45 33/91/44
f 29/37/37 28/38/38 36/89/46 37/90/45
f 30/39/40 31/40/39 39/87/47 38/88/48
f 28/38/38 30/144/40 38/145/48 36/89/46
f 31/40/39 32/154/41 40/153/49 39/87/47
f 32/41/41 26/34/35 34/86/43 40/85/49
f 34/42/43 35/130/42 43/131/50 42/110/51
f 35/43/42 33/44/44 41/115/52 43/116/50
f 33/44/44 37/136/45 45/137/53 41/115/52
f 37/45/45 36/46/46 44/113/54 45/114/53
f 38/47/48 39/48/47 47/111/55 46/112/56
f 36/46/46 38/168/48 46/167/56 44/113/54
f 39/48/47 40/149/49 48/150/57 47/111/55
f 40/49/49 34/42/43 42/110/51 48/109/57
f 42/50/51 43/155/50 51/156/58 50/94/59
f 43/51/50 41/52/52 49/99/60 51/100/58
f 41/52/52 45/159/53 53/160/61 49/99/60
f 45/53/53 44/54/54 52/97/62 53/98/61
f 46/55/56 47/56/55 55/95/63 54/96/64
f 44/54/54 46/163/56 54/164/64 52/97/62
f 47/56/55 48/151/57 56/152/65 55/95/63
f 48/57/57 42/50/51 50/94/59 56/93/65
f 50/58/59 51/157/58 59/158/66 58/102/67
f 51/59/58 49/60/60 57/107/68 59/108/66
f 49/60/60 53/161/61 61/162/69 57/107/68
f 53/61/61 52/62/62 60/105/70 61/106/69
f 54/63/64 55/64/63 63/103/71 62/104/72
f 52/62/62 54/165/64 62/166/72 60/105/70
f 55/64/63 56/169/65 64/170/73 63/103/71
f 56/65/65 50/58/59 58/102/67 64/101/73
f 58/66/67 59/174/66 68/183/5 67/74/7
f 59/67/66 57/68/68 65/76/19 68/75/5
f 57/68/68 61/175/69 70/181/18 65/76/19
f 61/69/69 60/70/70 69/78/31 70/77/18
f 62/71/72 63/72/71 72/80/33 71/79/30
f 60/70/70 62/177/72 71/179/30 69/78/31
f 63/72/71 64/176/73 73/178/32 72/80/33
f 64/73/73 58/66/67 67/74/7 73/81/32
f 71/79/30 72/80/33 66/27/6
f 69/78/31 66/180/6 70/77/18
f 65/76/19 66/182/6 68/75/5
f 67/74/7 66/184/6 73/81/32
s 7
f 111/185/74 112/186/75 99/187/76 100/188/77
f 103/189/78 104/190/79 107/191/80 108/192/81
f 109/193/82 110/194/83 101/195/84 102/196/85
f 113/197/86 106/198/87 105/199/88 98/200/89
f 98/201/89 99/202/76 112/203/75 113/204/86
f 100/205/77 101/206/84 110/207/83 111/208/74
f 106/209/87 107/210/80 104/211/79 105/212/88
f 108/213/81 109/214/82 102/215/85 103/216/78
f 115/217/90 116/218/91 91/219/92 90/220/93
f 116/221/91 117/222/94 92/223/95 91/224/92
f 93/225/96 92/226/95 117/227/94 118/228/97
f 118/229/97 119/230/98 94/231/99 93/232/96
f 119/233/98 120/234/100 95/235/101 94/236/99
f 96/237/102 95/238/101 120/239/100 121/240/103
f 121/241/103 114/242/104 97/243/105 96/244/102
f 90/245/93 97/246/105 114/247/104 115/248/90
f 123/249/106 122/250/107 124/251/108 125/252/109
f 100/188/77 99/187/76 75/253/110 79/254/111
f 127/255/112 126/256/113 128/257/114 129/258/115
f 102/196/85 101/195/84 78/259/116 88/260/117
f 131/261/118 130/262/119 132/263/120 133/264/121
f 85/265/122 104/190/79 103/189/78 89/266/123
f 135/267/124 134/268/125 136/269/126 137/270/127
f 98/200/89 105/199/88 84/271/128 74/272/129
f 91/224/92 92/223/95 107/210/80 106/209/87
f 108/192/81 107/191/80 92/226/95 93/225/96
f 93/232/96 94/231/99 109/214/82 108/213/81
f 94/236/99 95/235/101 110/194/83 109/193/82
f 111/208/74 110/207/83 95/238/101 96/237/102
f 96/244/102 97/243/105 112/186/75 111/185/74
f 113/204/86 112/203/75 97/246/105 90/245/93
f 90/220/93 91/219/92 106/198/87 113/197/86
f 115/248/90 114/247/104 77/273/130 76/274/131
f 82/275/132 116/218/91 115/217/90 76/276/131
f 82/277/132 83/278/133 117/222/94 116/221/91
f 118/228/97 117/227/94 83/279/133 86/280/134
f 86/281/134 87/282/135 119/230/98 118/229/97
f 80/283/136 120/234/100 119/233/98 87/284/135
f 121/240/103 120/239/100 80/285/136 81/286/137
f 77/287/130 114/242/104 121/241/103 81/288/137
f 75/253/110 99/187/76 124/289/108 122/290/107
f 99/202/76 98/201/89 125/252/109 124/251/108
f 98/200/89 74/272/129 123/291/106 125/292/109
f 78/259/116 101/195/84 128/293/114 126/294/113
f 101/206/84 100/205/77 129/258/115 128/257/114
f 100/188/77 79/254/111 127/295/112 129/296/115
f 103/216/78 102/215/85 130/262/119 131/261/118
f 102/196/85 88/260/117 132/297/120 130/298/119
f 89/266/123 103/189/78 131/299/118 133/300/121
f 105/212/88 104/211/79 134/268/125 135/267/124
f 104/190/79 85/265/122 136/301/126 134/302/125
f 84/271/128 105/199/88 135/303/124 137/304/127
