# Blender v2.79 (sub 0) OBJ File: ''
# www.blender.org
mtllib framel.mtl
o Cube_Cube.001
v -1.000000 -1.000000 1.000000
v -1.000000 1.000000 1.000000
v -1.000000 -1.000000 -1.000000
v -1.000000 1.000000 -1.000000
v 1.000000 -1.000000 1.000000
v 1.000000 1.000000 1.000000
v 1.000000 -1.000000 -1.000000
v 1.000000 1.000000 -1.000000
v -2.789503 -0.529711 -0.529711
v -2.789503 -0.529711 0.529711
v -2.789503 0.529711 0.529711
v -2.789503 0.529711 -0.529711
v 1.543632 0.778748 -0.778748
v 1.543632 -0.778748 -0.778748
v 1.543632 -0.778748 0.778748
v 1.543632 0.778748 0.778748
vn -0.2542 0.9672 0.0000
vn 0.0000 0.0000 -1.0000
vn 0.3770 0.0000 -0.9262
vn 0.0000 0.0000 1.0000
vn 0.0000 -1.0000 0.0000
vn 0.0000 1.0000 0.0000
vn -1.0000 0.0000 0.0000
vn -0.2542 -0.9672 0.0000
vn -0.2542 0.0000 -0.9672
vn -0.2542 0.0000 0.9672
vn 1.0000 0.0000 0.0000
vn 0.3770 0.0000 0.9262
vn 0.3770 -0.9262 0.0000
vn 0.3770 0.9262 0.0000
usemtl None
s off
f 2//1 4//1 12//1 11//1
f 3//2 4//2 8//2 7//2
f 7//3 8//3 13//3 14//3
f 5//4 6//4 2//4 1//4
f 3//5 7//5 5//5 1//5
f 8//6 4//6 2//6 6//6
f 10//7 11//7 12//7 9//7
f 3//8 1//8 10//8 9//8
f 4//9 3//9 9//9 12//9
f 1//10 2//10 11//10 10//10
f 14//11 13//11 16//11 15//11
f 6//12 5//12 15//12 16//12
f 5//13 7//13 14//13 15//13
f 8//14 6//14 16//14 13//14
