# Blender v2.77 (sub 0) OBJ File: ''
# www.blender.org
mtllib dashes.mtl
o Plane.003_Plane.004
v -17.000000 0.000000 -0.137406
v -17.000000 0.000000 0.137407
v -19.000000 0.000000 -0.137406
v -19.000000 0.000000 0.137407
v -13.000000 0.000000 -0.137406
v -13.000000 0.000000 0.137407
v -15.000000 0.000000 -0.137406
v -15.000000 0.000000 0.137407
v 15.000000 0.000000 -0.137407
v 15.000000 0.000000 0.137406
v 13.000000 0.000000 -0.137407
v 13.000000 0.000000 0.137406
v 19.000000 0.000000 -0.137407
v 19.000000 0.000000 0.137406
v 17.000000 0.000000 -0.137407
v 17.000000 0.000000 0.137406
v -9.000000 0.000000 -0.137406
v -9.000000 0.000000 0.137407
v -11.000000 0.000000 -0.137406
v -11.000000 0.000000 0.137407
v -5.000000 0.000000 -0.137406
v -5.000000 0.000000 0.137407
v -7.000000 0.000000 -0.137406
v -7.000000 0.000000 0.137407
v 7.000000 0.000000 -0.137407
v 7.000000 0.000000 0.137406
v 5.000000 0.000000 -0.137407
v 5.000000 0.000000 0.137406
v 11.000000 0.000000 -0.137407
v 11.000000 0.000000 0.137406
v 9.000000 0.000000 -0.137407
v 9.000000 0.000000 0.137406
v -1.000000 0.000000 -0.137406
v -1.000000 0.000000 0.137406
v -3.000000 0.000000 -0.137406
v -3.000000 0.000000 0.137406
v 3.000000 0.000000 -0.137406
v 3.000000 0.000000 0.137406
v 1.000000 0.000000 -0.137406
v 1.000000 0.000000 0.137406
vn 0.0000 1.0000 0.0000
usemtl None
s off
f 1//1 3//1 4//1 2//1
f 5//1 7//1 8//1 6//1
f 9//1 11//1 12//1 10//1
f 13//1 15//1 16//1 14//1
f 17//1 19//1 20//1 18//1
f 21//1 23//1 24//1 22//1
f 25//1 27//1 28//1 26//1
f 29//1 31//1 32//1 30//1
f 33//1 35//1 36//1 34//1
f 37//1 39//1 40//1 38//1
