# This file uses centimeters as units for non-parametric coordinates.

g default
v -0.659357 0.588754 0.217845
v 0.217844 0.588754 0.659357
v -0.525861 0.934262 0.173739
v 0.173739 0.934262 0.525861
v -0.173739 0.934262 -0.525861
v 0.525861 0.934262 -0.173739
v -0.217845 0.588754 -0.659357
v 0.659357 0.588754 -0.217845
v -0.168808 0.612129 0.335388
v 0.168808 0.612129 -0.335389
v 0.134630 0.915620 -0.267484
v -0.134630 0.915620 0.267484
v -0.659357 0.688086 0.217845
v -0.168808 0.688086 0.335388
v 0.217844 0.688086 0.659357
v 0.659357 0.688086 -0.217845
v 0.168808 0.688086 -0.335389
v -0.217845 0.688086 -0.659357
v -0.267485 0.915620 -0.134630
v 0.267484 0.915620 0.134630
v 0.335388 0.688086 0.168807
v 0.335388 0.612129 0.168807
v -0.335389 0.612129 -0.168808
v -0.335389 0.688086 -0.168808
v 0.329864 0.954208 -0.217231
v 0.217231 0.954208 0.329863
v 0.783246 0.988696 0.161251
v -0.217231 0.954208 -0.329865
v 0.161251 0.988696 -0.783246
v -0.783245 0.988696 -0.161251
v -0.329864 0.954208 0.217231
v -0.161250 0.988696 0.783246
v 0.233425 1.249252 -0.153721
v 0.153722 1.249252 0.233425
v 0.410762 1.252649 0.084565
v -0.153721 1.249252 -0.233425
v 0.084566 1.252650 -0.410762
v -0.410762 1.252649 -0.084566
v -0.233424 1.249252 0.153721
v -0.084565 1.252649 0.410762
v 0.108434 1.331740 -0.359254
v 0.359253 1.331740 0.108433
v 0.502967 1.337380 -0.269740
v -0.359253 1.331741 -0.108435
v -0.269742 1.337382 -0.502968
v -0.502968 1.337380 0.269740
v -0.108433 1.331741 0.359252
v 0.269742 1.337381 0.502966
v 0.073912 1.618000 -0.244881
v 0.244880 1.618000 0.073911
v 0.329768 1.619755 -0.176855
v -0.244880 1.618001 -0.073913
v -0.176855 1.619755 -0.329770
v -0.329769 1.619755 0.176854
v -0.073912 1.618001 0.244879
v 0.176856 1.619755 0.329768
v -0.126098 1.738482 -0.326499
v 0.326498 1.738482 -0.126098
v 0.209490 1.741324 -0.473123
v -0.326498 1.738483 0.126097
v -0.473125 1.741324 -0.209490
v -0.209491 1.741324 0.473124
v 0.126098 1.738483 0.326498
v 0.473125 1.741324 0.209488
v -0.053095 2.031076 -0.137476
v -0.000000 2.332779 -0.000000
v 0.137475 2.031076 -0.053095
v 0.082410 1.958063 -0.186123
v -0.137476 2.031076 0.053093
v -0.186123 1.958064 -0.082413
v -0.082412 1.958064 0.186121
v 0.053093 2.031076 0.137474
v 0.186121 1.958063 0.082410
v -0.173491 -0.000000 0.013312
v -0.146909 -0.000000 0.093768
v -0.112316 1.699441 0.008767
v -0.095068 1.699441 0.060973
v 0.094132 -0.000000 0.148011
v 0.013675 -0.000000 0.174593
v 0.061337 1.699441 0.096170
v 0.009131 1.699441 0.113418
v -0.059871 1.699441 -0.095432
v -0.007665 1.699441 -0.112681
v -0.092665 -0.000000 -0.147273
v -0.012209 -0.000000 -0.173855
v 0.096534 1.699441 -0.060235
v 0.113782 1.699441 -0.008029
v 0.174957 -0.000000 -0.012574
v 0.148375 -0.000000 -0.093030
v -0.139617 0.849720 0.010795
v -0.074506 0.849720 -0.118567
v -0.009693 0.849720 -0.139981
v 0.119669 0.849720 -0.074871
v 0.141083 0.849720 -0.010057
v 0.075973 0.849720 0.119305
v 0.011158 0.849720 0.140719
v -0.118203 0.849720 0.075609
v -0.173491 0.109673 0.013312
v -0.146909 0.109673 0.093768
v 0.013675 0.109673 0.174593
v 0.094132 0.109673 0.148011
v 0.174957 0.109673 -0.012574
v 0.148375 0.109673 -0.093030
v -0.012209 0.109673 -0.173855
v -0.092665 0.109673 -0.147273
v -0.084357 0.450149 -0.134139
v -0.011058 0.450149 -0.158357
v 0.135241 0.450149 -0.084722
v 0.159459 0.450149 -0.011422
v 0.085823 0.450149 0.134877
v 0.012524 0.450149 0.159094
v -0.133775 0.450149 0.085459
v -0.157992 0.450149 0.012160
v -0.102008 1.332069 0.065364
v -0.120506 1.332069 0.009375
v -0.064261 1.332069 -0.102373
v -0.008273 1.332069 -0.120871
v 0.103474 1.332069 -0.064626
v 0.121973 1.332069 -0.008638
v 0.065728 1.332069 0.103110
v 0.009739 1.332069 0.121608
v -0.269546 0.000000 0.119065
v -0.287060 0.000000 0.066054
v -0.269546 0.036683 0.119065
v -0.287060 0.036683 0.066054
v 0.112597 0.000000 0.272905
v 0.073248 0.000000 0.285905
v 0.112597 0.031869 0.272905
v 0.073248 0.031869 0.285905
v 0.287523 0.034544 -0.068353
v 0.272014 0.034544 -0.115293
v 0.287523 0.000000 -0.068353
v 0.272014 0.000000 -0.115293
v -0.069544 0.033447 -0.285907
v -0.113371 0.033447 -0.271428
v -0.069544 0.000000 -0.285907
v -0.113371 0.000000 -0.271428
vt 0.511248 0.014955
vt 0.511250 0.014964
vt 0.446963 0.329094
vt 0.446950 0.329127
vt 0.446990 0.329081
vt 0.446963 0.329094
vt 0.511250 0.014964
vt 0.026379 0.014982
vt 0.511251 0.014964
vt 0.460622 0.160009
vt 0.026377 0.015008
vt 0.077027 0.160046
vt 0.268816 0.036164
vt 0.268816 0.036164
vt 0.262078 0.381619
vt 0.262078 0.381620
vt 0.512918 0.054183
vt 0.268817 0.066240
vt 0.024715 0.054210
vt 0.024715 0.054210
vt 0.512918 0.054192
vt 0.268817 0.066240
vt 0.024715 0.054236
vt 0.512917 0.054192
vt 0.268828 0.164072
vt 0.262128 0.381690
vt 0.228918 0.986193
vt 0.262053 0.381613
vt 0.268821 0.164063
vt 0.268817 0.066240
vt 0.268816 0.036164
vt 0.268815 0.036173
vt 0.268818 0.066249
vt 0.321455 0.405436
vt 0.039094 0.388491
vt 0.321455 0.405436
vt 0.039094 0.388491
vt 0.321455 0.405436
vt 0.039094 0.388491
vt 0.321455 0.405436
vt 0.039094 0.388492
vt 0.483806 0.670164
vt 0.624843 0.680413
vt 0.483806 0.670164
vt 0.624845 0.680414
vt 0.483806 0.670164
vt 0.624844 0.680413
vt 0.483806 0.670164
vt 0.624844 0.680413
vt 0.795304 0.840919
vt 0.600492 0.840919
vt 0.795304 0.840919
vt 0.600492 0.840919
vt 0.795304 0.840919
vt 0.600492 0.840919
vt 0.795304 0.840919
vt 0.600492 0.840919
vt 0.862908 0.808749
vt 0.988140 0.817893
vt 0.862908 0.808750
vt 0.988128 0.817924
vt 0.862902 0.808707
vt 0.988137 0.817906
vt 0.862906 0.808744
vt 0.988140 0.817888
vt 0.228895 0.697010
vt 0.054025 0.687843
vt 0.228895 0.697010
vt 0.054025 0.687843
vt 0.228895 0.697010
vt 0.054025 0.687843
vt 0.228895 0.697010
vt 0.054025 0.687843
vt 0.228907 0.848559
vt 0.157447 0.826398
vt 0.228907 0.848558
vt 0.157447 0.826398
vt 0.228907 0.848559
vt 0.157447 0.826398
vt 0.228907 0.848558
vt 0.157447 0.826398
vt 0.077019 0.160023
vt 0.268821 0.164063
vt 0.077019 0.160023
vt 0.183284 0.541279
vt 0.321455 0.541279
vt 0.321455 0.541279
vt 0.183283 0.541279
vt 0.321455 0.541279
vt 0.183283 0.541279
vt 0.321455 0.541279
vt 0.183284 0.541279
vt 0.668647 0.969665
vt 0.795304 0.969665
vt 0.795304 0.969665
vt 0.668647 0.969665
vt 0.795304 0.969665
vt 0.668647 0.969665
vt 0.795304 0.969665
vt 0.668647 0.969665
vt 0.906884 0.681368
vt 0.757250 0.769571
vt 0.757256 0.769546
vt 0.906907 0.681372
vt 0.757268 0.769463
vt 0.906957 0.681354
vt 0.757251 0.769568
vt 0.906888 0.681372
vt 0.526500 0.532762
vt 0.368127 0.642374
vt 0.368127 0.642374
vt 0.526500 0.532762
vt 0.368127 0.642374
vt 0.526500 0.532762
vt 0.368127 0.642374
vt 0.526499 0.532762
vt 0.576662 0.173227
vt 0.351953 0.344067
vt 0.351969 0.344054
vt 0.576640 0.173164
vt 0.352003 0.344084
vt 0.576596 0.173094
vt 0.351970 0.344053
vt 0.576640 0.173165
vt 0.460622 0.160009
vt 0.268820 0.164063
vt 0.077019 0.160023
vt 0.585534 0.388492
vt 0.459371 0.541279
vt 0.342460 0.674426
vt 0.179166 0.605086
vt 0.127287 0.173172
vt 0.070347 0.367820
vt 0.585534 0.388491
vt 0.459371 0.541279
vt 0.342460 0.674426
vt 0.179166 0.605086
vt 0.127265 0.173209
vt 0.070369 0.367869
vt 0.070369 0.367871
vt 0.127265 0.173210
vt 0.070413 0.368027
vt 0.127222 0.173341
vt 0.585534 0.388491
vt 0.459371 0.541279
vt 0.460629 0.160004
vt 0.024715 0.054210
vt 0.026380 0.014982
vt 0.342460 0.674426
vt 0.179166 0.605086
vt 0.987593 0.840919
vt 0.921932 0.969665
vt 0.459371 0.541279
vt 0.585534 0.388491
vt 0.987593 0.840919
vt 0.921931 0.969665
vt 0.737677 0.817910
vt 0.583783 0.778458
vt 0.987593 0.840919
vt 0.921931 0.969665
vt 0.737677 0.817906
vt 0.583783 0.778449
vt 0.987593 0.840919
vt 0.921931 0.969665
vt 0.737665 0.817790
vt 0.583795 0.778243
vt 0.179165 0.605086
vt 0.342460 0.674427
vt 0.737674 0.817882
vt 0.583786 0.778402
vt 0.460622 0.160009
vt 0.512917 0.054192
vt 0.026379 0.014982
vt 0.403764 0.687816
vt 0.403764 0.687816
vt 0.403764 0.687815
vt 0.403764 0.687815
vt 0.300363 0.826384
vt 0.300363 0.826384
vt 0.228918 0.986193
vt 0.300363 0.826384
vt 0.228918 0.986192
vt 0.300363 0.826384
vt 0.228918 0.986192
vt 0.927032 0.244104
vt 0.852024 0.244104
vt 0.848359 0.131296
vt 0.930692 0.131296
vt 0.848362 0.131310
vt 0.930689 0.131310
vt 0.927030 0.244110
vt 0.852026 0.244110
vt 0.927021 0.244132
vt 0.852035 0.244132
vt 0.848372 0.131359
vt 0.930680 0.131359
vt 0.927041 0.244081
vt 0.852015 0.244081
vt 0.848349 0.131246
vt 0.930702 0.131246
vt 0.732795 0.144544
vt 0.773212 0.144544
vt 0.771419 0.271825
vt 0.734597 0.271825
vt 0.732818 0.144544
vt 0.773190 0.144544
vt 0.771404 0.271825
vt 0.734623 0.271825
vt 0.771403 0.271825
vt 0.734613 0.271825
vt 0.732812 0.144544
vt 0.773195 0.144544
vt 0.771408 0.271825
vt 0.734608 0.271825
vt 0.732807 0.144544
vt 0.773201 0.144544
vt 0.918192 0.536367
vt 0.860884 0.536367
vt 0.856362 0.376903
vt 0.922703 0.376903
vt 0.767070 0.601531
vt 0.738968 0.601531
vt 0.736747 0.421651
vt 0.769279 0.421651
vt 0.856372 0.376891
vt 0.922692 0.376891
vt 0.918183 0.536305
vt 0.860893 0.536305
vt 0.767074 0.601531
vt 0.738965 0.601531
vt 0.736743 0.421651
vt 0.769283 0.421651
vt 0.918176 0.536258
vt 0.860899 0.536258
vt 0.856380 0.376882
vt 0.922685 0.376882
vt 0.736764 0.421651
vt 0.769286 0.421651
vt 0.767086 0.601531
vt 0.738991 0.601531
vt 0.918185 0.536319
vt 0.860891 0.536319
vt 0.856370 0.376894
vt 0.922695 0.376894
vt 0.736733 0.421651
vt 0.769292 0.421651
vt 0.767081 0.601531
vt 0.738955 0.601531
vt 0.741331 0.018545
vt 0.764645 0.018545
vt 0.764645 0.031275
vt 0.741331 0.031275
vt 0.848168 0.019625
vt 0.930500 0.019625
vt 0.741480 0.018545
vt 0.764496 0.018545
vt 0.764496 0.031275
vt 0.741480 0.031275
vt 0.848558 0.019722
vt 0.930866 0.019722
vt 0.764579 0.031275
vt 0.741397 0.031275
vt 0.741397 0.018545
vt 0.764579 0.018545
vt 0.930678 0.019646
vt 0.848351 0.019646
vt 0.764545 0.031275
vt 0.741431 0.031275
vt 0.741431 0.018545
vt 0.764545 0.018545
vt 0.848542 0.019548
vt 0.930896 0.019548
vt 0.766135 0.736189
vt 0.739910 0.736189
vt 0.862823 0.655742
vt 0.916260 0.655742
vt 0.766125 0.736189
vt 0.739922 0.736189
vt 0.916251 0.655643
vt 0.862832 0.655643
vt 0.766129 0.736189
vt 0.739918 0.736189
vt 0.862838 0.655568
vt 0.916245 0.655568
vt 0.766147 0.736189
vt 0.739951 0.736189
vt 0.862830 0.655665
vt 0.916253 0.655665
vt 0.790820 0.030908
vt 0.790821 0.019625
vt 0.988256 0.019548
vt 0.988256 0.030833
vt 0.790758 0.031001
vt 0.790757 0.019722
vt 0.988320 0.019625
vt 0.988319 0.030908
vt 0.988382 0.019722
vt 0.988383 0.031001
vt 0.790821 0.030928
vt 0.790821 0.019646
vt 0.988319 0.019646
vt 0.988319 0.030928
vt 0.790884 0.030833
vt 0.790884 0.019548
vn -0.412564 -0.535150 0.737161
vn -0.438183 0.223770 0.870588
vn 0.293324 0.354614 0.887812
vn 0.306970 0.068559 0.949247
vn 0.277961 0.727083 -0.627765
vn -0.000000 1.000000 0.000002
vn 0.752525 0.590962 -0.290636
vn 0.887812 0.354614 -0.293323
vn 0.438183 0.223770 -0.870588
vn 0.412564 -0.535150 -0.737160
vn 0.949247 0.068558 -0.306969
vn 0.737161 -0.535150 0.412563
vn 0.870588 0.223770 0.438183
vn -0.293324 0.354613 -0.887812
vn -0.870588 0.223769 -0.438183
vn -0.737161 -0.535150 -0.412564
vn -0.306968 0.068558 -0.949247
vn -0.627762 0.727084 -0.277964
vn -0.290632 0.590961 -0.752528
vn -0.887812 0.354612 0.293325
vn -0.949247 0.068564 0.306969
vn -0.949518 0.000000 0.313711
vn -0.449584 0.000000 0.893238
vn 0.313711 0.000000 0.949518
vn 0.893238 0.000000 0.449584
vn 0.949519 0.000000 -0.313710
vn 0.449584 0.000000 -0.893238
vn -0.313711 0.000000 -0.949519
vn -0.893238 0.000000 -0.449584
vn -0.277961 0.727084 0.627763
vn -0.752526 0.590962 0.290635
vn 0.627762 0.727085 0.277960
vn 0.290635 0.590963 0.752525
vn 0.916423 -0.292131 0.273549
vn 0.566433 0.332457 0.754073
vn 0.754072 0.332460 -0.566432
vn 0.273549 -0.292129 -0.916423
vn -0.566432 0.332462 -0.754072
vn -0.754072 0.332462 0.566432
vn -0.916424 -0.292129 -0.273546
vn -0.273549 -0.292129 0.916423
vn 0.789017 0.590896 0.168208
vn 0.612362 0.013670 0.790459
vn 0.790460 0.013671 -0.612361
vn 0.168209 0.590895 -0.789018
vn -0.612361 0.013669 -0.790460
vn -0.790460 0.013670 0.612362
vn -0.789018 0.590895 -0.168207
vn -0.168208 0.590897 0.789016
vn 0.831909 -0.115448 -0.542771
vn 0.909853 0.221261 0.351015
vn 0.351017 0.221258 -0.909853
vn -0.542771 -0.115447 -0.831908
vn -0.909853 0.221258 -0.351017
vn -0.351016 0.221260 0.909853
vn -0.831908 -0.115448 0.542771
vn 0.542772 -0.115446 0.831908
vn 0.841868 0.308095 -0.443099
vn 0.980417 -0.075110 0.182047
vn 0.182051 -0.075107 -0.980416
vn -0.443099 0.308094 -0.841868
vn -0.980417 -0.075110 -0.182048
vn -0.182048 -0.075111 0.980417
vn -0.841868 0.308094 0.443099
vn 0.443101 0.308092 0.841868
vn 0.291329 0.024433 -0.956311
vn 0.903469 0.356030 -0.238720
vn -0.238716 0.356031 -0.903469
vn -0.956312 0.024427 -0.291327
vn -0.903469 0.356030 0.238717
vn 0.238719 0.356031 0.903468
vn -0.291326 0.024426 0.956312
vn 0.956312 0.024431 0.291325
vn -0.219293 0.043853 0.974673
vn -0.652186 0.043853 0.756789
vn -0.597896 0.108713 0.794168
vn -0.279778 0.099049 0.954942
vn 0.599036 0.104348 -0.793894
vn 0.280336 0.102154 -0.954451
vn 0.219291 0.043853 -0.974673
vn 0.652185 0.043853 -0.756790
vn 0.974674 0.043854 0.219291
vn 0.756789 0.043854 0.652187
vn 0.793614 0.099049 0.600305
vn 0.954090 0.104348 0.280756
vn -0.974673 0.043853 -0.219294
vn -0.756791 0.043853 -0.652184
vn -0.793772 0.102153 -0.599575
vn -0.953336 0.108713 -0.281658
vn -0.975026 0.031314 -0.219870
vn -0.757465 0.031314 -0.652125
vn -0.756952 0.040978 -0.652185
vn -0.974769 0.040978 -0.219422
vn 0.219870 0.031313 -0.975026
vn 0.219422 0.040978 -0.974769
vn 0.652186 0.040978 -0.756951
vn 0.652125 0.031313 -0.757464
vn 0.975027 0.031313 0.219868
vn 0.974769 0.040978 0.219420
vn 0.757463 0.031313 0.652127
vn 0.756950 0.040978 0.652187
vn -0.219423 0.040978 0.974769
vn -0.219871 0.031314 0.975026
vn -0.652125 0.031314 0.757464
vn -0.652185 0.040978 0.756951
vn -0.603517 0.000000 -0.797350
vn -0.009713 0.000000 0.999953
vn -0.262602 0.524839 0.809682
vn -0.693279 0.524838 -0.493872
vn -0.255065 0.000000 0.966924
vn -0.608601 0.000000 0.793477
vn -0.806565 0.000000 0.591145
vn 0.999984 0.000000 -0.005702
vn 0.822106 0.502165 0.268276
vn -0.500477 0.502165 0.705232
vn 0.961522 0.000000 0.274730
vn 0.786615 0.000000 0.617444
vn 0.264885 0.515310 -0.815041
vn 0.698315 0.515307 0.496805
vn 0.597135 0.000000 0.802141
vn 0.001712 0.000000 -0.999999
vn 0.613796 0.000000 -0.789465
vn 0.263939 0.000000 -0.964539
vn -0.817893 0.510086 -0.266203
vn 0.498312 0.510087 -0.701067
vn 0.804172 0.000000 -0.594396
vn -0.999999 0.000000 0.001689
vn -0.963306 0.000000 -0.268405
vn -0.780904 0.000000 -0.624652
vn -0.652117 0.021377 0.757817
vn -0.975230 0.021377 -0.220160
vn -0.757818 0.021377 -0.652115
vn 0.220158 0.021378 -0.975230
vn 0.652117 0.021377 -0.757817
vn 0.975231 0.021377 0.220155
vn 0.757816 0.021377 0.652118
vn -0.220159 0.021377 0.975230
s 1
g Tree2
f 12/83/1 14/18/2 15/172/3 4/171/4
f 68/183/5 66/184/6 67/74/7
f 16/20/8 17/22/9 11/126/10 6/127/11
f 20/29/12 21/30/13 16/21/8 6/10/11
f 18/23/14 24/33/15 19/25/16 5/12/17
f 5/125/17 11/126/10 17/22/9 18/24/14
f 70/181/18 66/182/6 65/76/19
f 13/147/20 14/18/2 12/83/1 3/84/21
f 1/148/22 9/13/23 14/18/2 13/147/20
f 15/172/3 14/18/2 9/13/23 2/2/24
f 21/30/13 22/31/25 8/9/26 16/21/8
f 10/14/27 17/22/9 16/20/8 8/8/26
f 18/24/14 17/22/9 10/14/27 7/7/28
f 7/11/28 23/32/29 24/33/15 18/23/14
f 71/179/30 66/180/6 69/78/31
f 73/178/32 66/27/6 72/80/33
f 15/19/3 21/30/13 20/29/12 4/82/4
f 2/173/24 22/31/25 21/30/13 15/19/3
f 24/33/15 23/32/29 1/1/22 13/17/20
f 19/25/16 24/33/15 13/17/20 3/146/21
f 20/28/12 6/133/11 27/132/34 26/118/35
f 6/6/11 11/15/10 25/123/36 27/124/34
f 11/15/10 5/139/17 29/138/37 25/123/36
f 5/5/17 19/26/16 28/121/38 29/122/37
f 3/3/21 12/16/1 31/119/39 30/120/40
f 19/26/16 3/142/21 30/143/40 28/121/38
f 12/16/1 4/140/4 32/141/41 31/119/39
f 4/4/4 20/28/12 26/118/35 32/117/41
f 26/34/35 27/128/34 35/129/42 34/86/43
f 27/35/34 25/36/36 33/91/44 35/92/42
f 25/36/36 29/134/37 37/135/45 33/91/44
f 29/37/37 28/38/38 36/89/46 37/90/45
f 30/39/40 31/40/39 39/87/47 38/88/48
f 28/38/38 30/144/40 38/145/48 36/89/46
f 31/40/39 32/154/41 40/153/49 39/87/47
f 32/41/41 26/34/35 34/86/43 40/85/49
f 34/42/43 35/130/42 43/131/50 42/110/51
f 35/43/42 33/44/44 41/115/52 43/116/50
f 33/44/44 37/136/45 45/137/53 41/115/52
f 37/45/45 36/46/46 44/113/54 45/114/53
f 38/47/48 39/48/47 47/111/55 46/112/56
f 36/46/46 38/168/48 46/167/56 44/113/54
f 39/48/47 40/149/49 48/150/57 47/111/55
f 40/49/49 34/42/43 42/110/51 48/109/57
f 42/50/51 43/155/50 51/156/58 50/94/59
f 43/51/50 41/52/52 49/99/60 51/100/58
f 41/52/52 45/159/53 53/160/61 49/99/60
f 45/53/53 44/54/54 52/97/62 53/98/61
f 46/55/56 47/56/55 55/95/63 54/96/64
f 44/54/54 46/163/56 54/164/64 52/97/62
f 47/56/55 48/151/57 56/152/65 55/95/63
f 48/57/57 42/50/51 50/94/59 56/93/65
f 50/58/59 51/157/58 59/158/66 58/102/67
f 51/59/58 49/60/60 57/107/68 59/108/66
f 49/60/60 53/161/61 61/162/69 57/107/68
f 53/61/61 52/62/62 60/105/70 61/106/69
f 54/63/64 55/64/63 63/103/71 62/104/72
f 52/62/62 54/165/64 62/166/72 60/105/70
f 55/64/63 56/169/65 64/170/73 63/103/71
f 56/65/65 50/58/59 58/102/67 64/101/73
f 58/66/67 59/174/66 68/183/5 67/74/7
f 59/67/66 57/68/68 65/76/19 68/75/5
f 57/68/68 61/175/69 70/181/18 65/76/19
f 61/69/69 60/70/70 69/78/31 70/77/18
f 62/71/72 63/72/71 72/80/33 71/79/30
f 60/70/70 62/177/72 71/179/30 69/78/31
f 63/72/71 64/176/73 73/178/32 72/80/33
f 64/73/73 58/66/67 67/74/7 73/81/32
f 71/79/30 72/80/33 66/27/6
f 69/78/31 66/180/6 70/77/18
f 65/76/19 66/182/6 68/75/5
f 67/74/7 66/184/6 73/81/32
s 7
f 111/185/74 112/186/75 99/187/76 100/188/77
f 103/189/78 104/190/79 107/191/80 108/192/81
f 109/193/82 110/194/83 101/195/84 102/196/85
f 113/197/86 106/198/87 105/199/88 98/200/89
f 98/201/89 99/202/76 112/203/75 113/204/86
f 100/205/77 101/206/84 110/207/83 111/208/74
f 106/209/87 107/210/80 104/211/79 105/212/88
f 108/213/81 109/214/82 102/215/85 103/216/78
f 115/217/90 116/218/91 91/219/92 90/220/93
f 116/221/91 117/222/94 92/223/95 91/224/92
f 93/225/96 92/226/95 117/227/94 118/228/97
f 118/229/97 119/230/98 94/231/99 93/232/96
f 119/233/98 120/234/100 95/235/101 94/236/99
f 96/237/102 95/238/101 120/239/100 121/240/103
f 121/241/103 114/242/104 97/243/105 96/244/102
f 90/245/93 97/246/105 114/247/104 115/248/90
f 123/249/106 122/250/107 124/251/108 125/252/109
f 100/188/77 99/187/76 75/253/110 79/254/111
f 127/255/112 126/256/113 128/257/114 129/258/115
f 102/196/85 101/195/84 78/259/116 88/260/117
f 131/261/118 130/262/119 132/263/120 133/264/121
f 85/265/122 104/190/79 103/189/78 89/266/123
f 135/267/124 134/268/125 136/269/126 137/270/127
f 98/200/89 105/199/88 84/271/128 74/272/129
f 91/224/92 92/223/95 107/210/80 106/209/87
f 108/192/81 107/191/80 92/226/95 93/225/96
f 93/232/96 94/231/99 109/214/82 108/213/81
f 94/236/99 95/235/101 110/194/83 109/193/82
f 111/208/74 110/207/83 95/238/101 96/237/102
f 96/244/102 97/243/105 112/186/75 111/185/74
f 113/204/86 112/203/75 97/246/105 90/245/93
f 90/220/93 91/219/92 106/198/87 113/197/86
f 115/248/90 114/247/104 77/273/130 76/274/131
f 82/275/132 116/218/91 115/217/90 76/276/131
f 82/277/132 83/278/133 117/222/94 116/221/91
f 118/228/97 117/227/94 83/279/133 86/280/134
f 86/281/134 87/282/135 119/230/98 118/229/97
f 80/283/136 120/234/100 119/233/98 87/284/135
f 121/240/103 120/239/100 80/285/136 81/286/137
f 77/287/130 114/242/104 121/241/103 81/288/137
f 75/253/110 99/187/76 124/289/108 122/290/107
f 99/202/76 98/201/89 125/252/109 124/251/108
f 98/200/89 74/272/129 123/291/106 125/292/109
f 78/259/116 101/195/84 128/293/114 126/294/113
f 101/206/84 100/205/77 129/258/115 128/257/114
f 100/188/77 79/254/111 127/295/112 129/296/115
f 103/216/78 102/215/85 130/262/119 131/261/118
f 102/196/85 88/260/117 132/297/120 130/298/119
f 89/266/123 103/189/78 131/299/118 133/300/121
f 105/212/88 104/211/79 134/268/125 135/267/124
f 104/190/79 85/265/122 136/301/126 134/302/125
f 84/271/128 105/199/88 135/303/124 137/304/127
