# This file uses centimeters as units for non-parametric coordinates.

g default
v 4.392171 -0.000000 2.934723
v 4.392171 0.000000 -2.934723
v 1.369240 -0.000000 2.934723
v 1.369240 0.000000 -2.934723
v -4.499685 -0.000000 2.934723
v -4.499685 0.000000 -2.934723
vt 1.000000 0.000000
vt 1.000000 1.000000
vt 0.484883 0.000000
vt 0.484883 1.000000
vt 0.000000 0.000000
vt 1.000000 0.000000
vt 1.000000 1.000000
vt 0.000000 1.000000
vn 0.000000 1.000000 0.000000
vn 0.000000 1.000000 0.000000
vn 0.000000 1.000000 0.000000
vn 0.000000 1.000000 0.000000
vn 0.000000 1.000000 0.000000
vn 0.000000 1.000000 0.000000
vn 0.000000 1.000000 0.000000
vn 0.000000 1.000000 0.000000
s off
g Freeway_Pavement2
f 4/4/1 3/3/2 1/1/3 2/2/4
f 5/5/5 3/6/6 4/7/7 6/8/8
