# This file uses centimeters as units for non-parametric coordinates.

g default
v -0.059049 0.691685 0.691897
v 0.691896 0.691685 0.059049
v -0.047093 1.097597 0.551813
v 0.551813 1.097597 0.047094
v -0.551813 1.097597 -0.047093
v 0.047093 1.097597 -0.551813
v -0.691897 0.691685 -0.059048
v 0.059048 0.691685 -0.691896
v 0.241962 0.719146 0.287116
v -0.241962 0.719146 -0.287116
v -0.192974 1.075695 -0.228985
v 0.192974 1.075695 0.228985
v -0.059049 0.808382 0.691897
v 0.241962 0.808382 0.287116
v 0.691896 0.808382 0.059049
v 0.059048 0.808382 -0.691896
v -0.241962 0.808382 -0.287116
v -0.691897 0.808382 -0.059048
v -0.228986 1.075695 0.192975
v 0.228985 1.075695 -0.192973
v 0.287116 0.808382 -0.241962
v 0.287116 0.719146 -0.241962
v -0.287116 0.719146 0.241963
v -0.287116 0.808382 0.241963
v -0.069982 1.121029 -0.388718
v 0.388718 1.121029 -0.069982
v 0.456317 1.161547 -0.656696
v -0.388719 1.121029 0.069982
v -0.656696 1.161547 -0.456317
v -0.456317 1.161547 0.656695
v 0.069982 1.121029 0.388718
v 0.656696 1.161547 0.456317
v -0.049522 1.467656 -0.275073
v 0.275073 1.467655 -0.049522
v 0.239309 1.471646 -0.344394
v -0.275073 1.467656 0.049522
v -0.344395 1.471647 -0.239309
v -0.239310 1.471646 0.344395
v 0.049522 1.467656 0.275072
v 0.344396 1.471646 0.239309
v -0.287650 1.564565 -0.240995
v 0.240993 1.564565 -0.287650
v -0.050175 1.571190 -0.568522
v -0.240995 1.564565 0.287649
v -0.568524 1.571192 0.050176
v 0.050174 1.571190 0.568523
v 0.287649 1.564565 0.240993
v 0.568522 1.571191 -0.050176
v -0.196073 1.900870 -0.164271
v 0.164269 1.900870 -0.196072
v -0.032897 1.902932 -0.372750
v -0.164271 1.900871 0.196072
v -0.372751 1.902932 0.032897
v 0.032897 1.902932 0.372750
v 0.196073 1.900871 0.164270
v 0.372750 1.902932 -0.032898
v -0.349781 2.042416 -0.012482
v 0.012482 2.042416 -0.349780
v -0.352595 2.045754 -0.378692
v -0.012483 2.042417 0.349780
v -0.378694 2.045755 0.352597
v 0.352595 2.045754 0.378694
v 0.349780 2.042417 0.012482
v 0.378692 2.045755 -0.352597
v -0.147279 2.386163 -0.005255
v -0.000000 2.740612 0.000000
v 0.005255 2.386163 -0.147278
v -0.138708 2.300386 -0.148973
v -0.005258 2.386163 0.147279
v -0.148975 2.300387 0.138708
v 0.138707 2.300387 0.148975
v 0.147276 2.386163 0.005257
v 0.148973 2.300386 -0.138707
v -0.055998 -0.000000 0.164744
v 0.028429 -0.000000 0.171949
v -0.036115 1.996549 0.106712
v 0.018667 1.996549 0.111388
v 0.173106 -0.000000 -0.028330
v 0.165900 -0.000000 0.056098
v 0.112544 1.996549 -0.018568
v 0.107868 1.996549 0.036214
v -0.111289 1.996549 0.017511
v -0.106614 1.996549 -0.037271
v -0.171850 -0.000000 0.027272
v -0.164645 -0.000000 -0.057155
v -0.017412 1.996549 -0.112445
v 0.037371 1.996549 -0.107770
v 0.057253 -0.000000 -0.165802
v -0.027174 -0.000000 -0.173006
v -0.044989 0.998275 0.132610
v -0.138316 0.998275 0.021867
v -0.132511 0.998275 -0.046145
v -0.021769 0.998275 -0.139472
v 0.046244 0.998275 -0.133667
v 0.139571 0.998275 -0.022924
v 0.133766 0.998275 0.045088
v 0.023024 0.998275 0.138414
v -0.055998 0.128847 0.164744
v 0.028429 0.128847 0.171949
v 0.165900 0.128847 0.056098
v 0.173106 0.128847 -0.028330
v 0.057253 0.128847 -0.165802
v -0.027174 0.128847 -0.173006
v -0.164645 0.128847 -0.057155
v -0.171850 0.128847 0.027272
v -0.156507 0.528847 0.024799
v -0.149943 0.528847 -0.052117
v -0.024701 0.528847 -0.157663
v 0.052216 0.528847 -0.151099
v 0.157762 0.528847 -0.025856
v 0.151197 0.528847 0.051060
v 0.025956 0.528847 0.156606
v -0.050961 0.528847 0.150041
v 0.019974 1.564951 0.119496
v -0.038777 1.564951 0.114482
v -0.119397 1.564951 0.018818
v -0.114383 1.564951 -0.039934
v -0.018719 1.564951 -0.120553
v 0.040032 1.564951 -0.115539
v 0.120652 1.564951 -0.019875
v 0.115637 1.564951 0.038877
v 0.003452 0.000000 0.294652
v -0.052175 0.000000 0.289905
v 0.003452 0.043097 0.294652
v -0.052175 0.043097 0.289905
v 0.295196 0.000000 0.003817
v 0.291672 0.000000 0.045106
v 0.295196 0.037441 0.003817
v 0.291672 0.037441 0.045106
v 0.050244 0.040584 -0.291234
v 0.000987 0.040584 -0.295437
v 0.050244 0.000000 -0.291234
v 0.000987 0.000000 -0.295437
v -0.290217 0.039295 -0.048512
v -0.294142 0.039295 -0.002523
v -0.290217 0.000000 -0.048512
v -0.294142 0.000000 -0.002523
vt 0.511248 0.014955
vt 0.511250 0.014964
vt 0.446963 0.329094
vt 0.446950 0.329127
vt 0.446990 0.329081
vt 0.446963 0.329094
vt 0.511250 0.014964
vt 0.026379 0.014982
vt 0.511251 0.014964
vt 0.460622 0.160009
vt 0.026377 0.015008
vt 0.077027 0.160046
vt 0.268816 0.036164
vt 0.268816 0.036164
vt 0.262078 0.381619
vt 0.262078 0.381620
vt 0.512918 0.054183
vt 0.268817 0.066240
vt 0.024715 0.054210
vt 0.024715 0.054210
vt 0.512918 0.054192
vt 0.268817 0.066240
vt 0.024715 0.054236
vt 0.512917 0.054192
vt 0.268828 0.164072
vt 0.262128 0.381690
vt 0.228918 0.986193
vt 0.262053 0.381613
vt 0.268821 0.164063
vt 0.268817 0.066240
vt 0.268816 0.036164
vt 0.268815 0.036173
vt 0.268818 0.066249
vt 0.321455 0.405436
vt 0.039094 0.388491
vt 0.321455 0.405436
vt 0.039094 0.388491
vt 0.321455 0.405436
vt 0.039094 0.388491
vt 0.321455 0.405436
vt 0.039094 0.388492
vt 0.483806 0.670164
vt 0.624843 0.680413
vt 0.483806 0.670164
vt 0.624845 0.680414
vt 0.483806 0.670164
vt 0.624844 0.680413
vt 0.483806 0.670164
vt 0.624844 0.680413
vt 0.795304 0.840919
vt 0.600492 0.840919
vt 0.795304 0.840919
vt 0.600492 0.840919
vt 0.795304 0.840919
vt 0.600492 0.840919
vt 0.795304 0.840919
vt 0.600492 0.840919
vt 0.862908 0.808749
vt 0.988140 0.817893
vt 0.862908 0.808750
vt 0.988128 0.817924
vt 0.862902 0.808707
vt 0.988137 0.817906
vt 0.862906 0.808744
vt 0.988140 0.817888
vt 0.228895 0.697010
vt 0.054025 0.687843
vt 0.228895 0.697010
vt 0.054025 0.687843
vt 0.228895 0.697010
vt 0.054025 0.687843
vt 0.228895 0.697010
vt 0.054025 0.687843
vt 0.228907 0.848559
vt 0.157447 0.826398
vt 0.228907 0.848558
vt 0.157447 0.826398
vt 0.228907 0.848559
vt 0.157447 0.826398
vt 0.228907 0.848558
vt 0.157447 0.826398
vt 0.077019 0.160023
vt 0.268821 0.164063
vt 0.077019 0.160023
vt 0.183284 0.541279
vt 0.321455 0.541279
vt 0.321455 0.541279
vt 0.183283 0.541279
vt 0.321455 0.541279
vt 0.183283 0.541279
vt 0.321455 0.541279
vt 0.183284 0.541279
vt 0.668647 0.969665
vt 0.795304 0.969665
vt 0.795304 0.969665
vt 0.668647 0.969665
vt 0.795304 0.969665
vt 0.668647 0.969665
vt 0.795304 0.969665
vt 0.668647 0.969665
vt 0.906884 0.681368
vt 0.757250 0.769571
vt 0.757256 0.769546
vt 0.906907 0.681372
vt 0.757268 0.769463
vt 0.906957 0.681354
vt 0.757251 0.769568
vt 0.906888 0.681372
vt 0.526500 0.532762
vt 0.368127 0.642374
vt 0.368127 0.642374
vt 0.526500 0.532762
vt 0.368127 0.642374
vt 0.526500 0.532762
vt 0.368127 0.642374
vt 0.526499 0.532762
vt 0.576662 0.173227
vt 0.351953 0.344067
vt 0.351969 0.344054
vt 0.576640 0.173164
vt 0.352003 0.344084
vt 0.576596 0.173094
vt 0.351970 0.344053
vt 0.576640 0.173165
vt 0.460622 0.160009
vt 0.268820 0.164063
vt 0.077019 0.160023
vt 0.585534 0.388492
vt 0.459371 0.541279
vt 0.342460 0.674426
vt 0.179166 0.605086
vt 0.127287 0.173172
vt 0.070347 0.367820
vt 0.585534 0.388491
vt 0.459371 0.541279
vt 0.342460 0.674426
vt 0.179166 0.605086
vt 0.127265 0.173209
vt 0.070369 0.367869
vt 0.070369 0.367871
vt 0.127265 0.173210
vt 0.070413 0.368027
vt 0.127222 0.173341
vt 0.585534 0.388491
vt 0.459371 0.541279
vt 0.460629 0.160004
vt 0.024715 0.054210
vt 0.026380 0.014982
vt 0.342460 0.674426
vt 0.179166 0.605086
vt 0.987593 0.840919
vt 0.921932 0.969665
vt 0.459371 0.541279
vt 0.585534 0.388491
vt 0.987593 0.840919
vt 0.921931 0.969665
vt 0.737677 0.817910
vt 0.583783 0.778458
vt 0.987593 0.840919
vt 0.921931 0.969665
vt 0.737677 0.817906
vt 0.583783 0.778449
vt 0.987593 0.840919
vt 0.921931 0.969665
vt 0.737665 0.817790
vt 0.583795 0.778243
vt 0.179165 0.605086
vt 0.342460 0.674427
vt 0.737674 0.817882
vt 0.583786 0.778402
vt 0.460622 0.160009
vt 0.512917 0.054192
vt 0.026379 0.014982
vt 0.403764 0.687816
vt 0.403764 0.687816
vt 0.403764 0.687815
vt 0.403764 0.687815
vt 0.300363 0.826384
vt 0.300363 0.826384
vt 0.228918 0.986193
vt 0.300363 0.826384
vt 0.228918 0.986192
vt 0.300363 0.826384
vt 0.228918 0.986192
vt 0.927032 0.244104
vt 0.852024 0.244104
vt 0.848359 0.131296
vt 0.930692 0.131296
vt 0.848362 0.131310
vt 0.930689 0.131310
vt 0.927030 0.244110
vt 0.852026 0.244110
vt 0.927021 0.244132
vt 0.852035 0.244132
vt 0.848372 0.131359
vt 0.930680 0.131359
vt 0.927041 0.244081
vt 0.852015 0.244081
vt 0.848349 0.131246
vt 0.930702 0.131246
vt 0.732795 0.144544
vt 0.773212 0.144544
vt 0.771419 0.271825
vt 0.734597 0.271825
vt 0.732818 0.144544
vt 0.773190 0.144544
vt 0.771404 0.271825
vt 0.734623 0.271825
vt 0.771403 0.271825
vt 0.734613 0.271825
vt 0.732812 0.144544
vt 0.773195 0.144544
vt 0.771408 0.271825
vt 0.734608 0.271825
vt 0.732807 0.144544
vt 0.773201 0.144544
vt 0.918192 0.536367
vt 0.860884 0.536367
vt 0.856362 0.376903
vt 0.922703 0.376903
vt 0.767070 0.601531
vt 0.738968 0.601531
vt 0.736747 0.421651
vt 0.769279 0.421651
vt 0.856372 0.376891
vt 0.922692 0.376891
vt 0.918183 0.536305
vt 0.860893 0.536305
vt 0.767074 0.601531
vt 0.738965 0.601531
vt 0.736743 0.421651
vt 0.769283 0.421651
vt 0.918176 0.536258
vt 0.860899 0.536258
vt 0.856380 0.376882
vt 0.922685 0.376882
vt 0.736764 0.421651
vt 0.769286 0.421651
vt 0.767086 0.601531
vt 0.738991 0.601531
vt 0.918185 0.536319
vt 0.860891 0.536319
vt 0.856370 0.376894
vt 0.922695 0.376894
vt 0.736733 0.421651
vt 0.769292 0.421651
vt 0.767081 0.601531
vt 0.738955 0.601531
vt 0.741331 0.018545
vt 0.764645 0.018545
vt 0.764645 0.031275
vt 0.741331 0.031275
vt 0.848168 0.019625
vt 0.930500 0.019625
vt 0.741480 0.018545
vt 0.764496 0.018545
vt 0.764496 0.031275
vt 0.741480 0.031275
vt 0.848558 0.019722
vt 0.930866 0.019722
vt 0.764579 0.031275
vt 0.741397 0.031275
vt 0.741397 0.018545
vt 0.764579 0.018545
vt 0.930678 0.019646
vt 0.848351 0.019646
vt 0.764545 0.031275
vt 0.741431 0.031275
vt 0.741431 0.018545
vt 0.764545 0.018545
vt 0.848542 0.019548
vt 0.930896 0.019548
vt 0.766135 0.736189
vt 0.739910 0.736189
vt 0.862823 0.655742
vt 0.916260 0.655742
vt 0.766125 0.736189
vt 0.739922 0.736189
vt 0.916251 0.655643
vt 0.862832 0.655643
vt 0.766129 0.736189
vt 0.739918 0.736189
vt 0.862838 0.655568
vt 0.916245 0.655568
vt 0.766147 0.736189
vt 0.739951 0.736189
vt 0.862830 0.655665
vt 0.916253 0.655665
vt 0.790820 0.030908
vt 0.790821 0.019625
vt 0.988256 0.019548
vt 0.988256 0.030833
vt 0.790758 0.031001
vt 0.790757 0.019722
vt 0.988320 0.019625
vt 0.988319 0.030908
vt 0.988382 0.019722
vt 0.988383 0.031001
vt 0.790821 0.030928
vt 0.790821 0.019646
vt 0.988319 0.019646
vt 0.988319 0.030928
vt 0.790884 0.030833
vt 0.790884 0.019548
vn 0.540981 -0.464384 0.701204
vn 0.632494 0.191481 0.750524
vn 0.946671 0.311907 0.080791
vn 0.994789 0.044546 0.091709
vn -0.505472 0.670653 -0.542883
vn 0.000001 1.000000 0.000001
vn 0.030370 0.524178 -0.851067
vn 0.080792 0.311908 -0.946671
vn -0.632493 0.191482 -0.750525
vn -0.540980 -0.464384 -0.701205
vn 0.091710 0.044547 -0.994789
vn 0.701204 -0.464385 -0.540980
vn 0.750524 0.191481 -0.632493
vn -0.946672 0.311907 -0.080793
vn -0.750525 0.191480 0.632494
vn -0.701204 -0.464385 0.540980
vn -0.994789 0.044547 -0.091711
vn -0.542886 0.670654 0.505469
vn -0.851067 0.524177 -0.030375
vn -0.080791 0.311906 0.946672
vn -0.091709 0.044550 0.994789
vn -0.085034 0.000000 0.996378
vn 0.644418 0.000000 0.764674
vn 0.996378 0.000000 0.085033
vn 0.764674 0.000000 -0.644418
vn 0.085034 0.000000 -0.996378
vn -0.644418 0.000000 -0.764674
vn -0.996378 0.000000 -0.085034
vn -0.764674 0.000000 0.644418
vn 0.505471 0.670654 0.542883
vn -0.030373 0.524178 0.851067
vn 0.542882 0.670656 -0.505470
vn 0.851067 0.524179 0.030371
vn 0.624740 -0.180916 -0.759585
vn 0.931471 0.282882 -0.228780
vn -0.228779 0.282883 -0.931470
vn -0.759585 -0.180914 -0.624740
vn -0.931470 0.282886 0.228780
vn 0.228780 0.282886 0.931469
vn -0.624738 -0.180913 0.759587
vn 0.759586 -0.180912 0.624740
vn 0.489971 0.525114 -0.695833
vn 0.967623 0.021138 -0.251513
vn -0.251511 0.021138 -0.967623
vn -0.695833 0.525113 -0.489972
vn -0.967623 0.021138 0.251512
vn 0.251513 0.021138 0.967623
vn -0.489971 0.525113 0.695834
vn 0.695832 0.525115 0.489971
vn -0.165385 -0.073701 -0.983471
vn 0.685826 0.185667 -0.703683
vn -0.703682 0.185666 -0.685828
vn -0.983471 -0.073700 0.165385
vn -0.685828 0.185665 0.703682
vn 0.703683 0.185667 0.685826
vn 0.165387 -0.073702 0.983471
vn 0.983471 -0.073701 -0.165387
vn -0.079858 0.258754 -0.962637
vn 0.554241 -0.053986 -0.830604
vn -0.830601 -0.053984 -0.554245
vn -0.962637 0.258753 0.079859
vn -0.554241 -0.053986 0.830603
vn 0.830603 -0.053987 0.554241
vn 0.079859 0.258752 0.962637
vn 0.962637 0.258750 -0.079860
vn -0.753711 0.047739 -0.655470
vn 0.138478 0.302752 -0.942956
vn -0.942955 0.302753 -0.138482
vn -0.655469 0.047735 0.753712
vn -0.138480 0.302751 0.942956
vn 0.942955 0.302753 0.138478
vn 0.753712 0.047735 0.655469
vn 0.655468 0.047739 -0.753713
vn 0.810077 0.037338 0.585133
vn 0.439401 0.037338 0.897515
vn 0.493191 0.093035 0.864932
vn 0.770778 0.084857 0.631427
vn -0.492464 0.089342 -0.865735
vn -0.770199 0.087485 -0.631775
vn -0.810078 0.037337 -0.585132
vn -0.439402 0.037338 -0.897514
vn 0.585132 0.037338 -0.810078
vn 0.897515 0.037338 -0.439400
vn 0.866629 0.084857 -0.491684
vn 0.632041 0.089342 -0.769767
vn -0.585135 0.037337 0.810076
vn -0.897514 0.037337 0.439403
vn -0.866115 0.087484 0.492129
vn -0.632626 0.093034 0.768849
vn -0.585670 0.026650 0.810112
vn -0.897639 0.026650 0.439925
vn -0.897554 0.034883 0.439522
vn -0.585259 0.034883 0.810096
vn -0.810112 0.026649 -0.585669
vn -0.810097 0.034884 -0.585258
vn -0.439522 0.034884 -0.897554
vn -0.439925 0.026649 -0.897639
vn 0.585667 0.026649 -0.810113
vn 0.585257 0.034884 -0.810097
vn 0.897641 0.026649 -0.439922
vn 0.897555 0.034884 -0.439520
vn 0.810096 0.034884 0.585258
vn 0.810111 0.026650 0.585670
vn 0.439925 0.026650 0.897639
vn 0.439521 0.034884 0.897555
vn -0.970459 0.000000 0.241267
vn 0.915540 0.000000 0.402227
vn 0.679010 0.455144 0.576012
vn -0.766799 0.455143 0.452619
vn 0.788672 0.000000 0.614814
vn 0.490153 0.000000 0.871636
vn 0.226268 0.000000 0.974065
vn 0.388067 0.000000 -0.921631
vn 0.584850 0.432948 -0.685935
vn 0.460147 0.432946 0.775127
vn 0.630769 0.000000 -0.775971
vn 0.877068 0.000000 -0.480366
vn -0.682097 0.445755 -0.579695
vn 0.770458 0.445754 -0.455740
vn 0.972354 0.000000 -0.233513
vn -0.918729 0.000000 -0.394890
vn -0.484421 0.000000 -0.874835
vn -0.782989 0.000000 -0.622036
vn -0.581735 0.440647 0.683677
vn -0.457478 0.440647 -0.772363
vn -0.230196 0.000000 -0.973144
vn -0.391762 0.000000 0.920067
vn -0.625657 0.000000 0.780098
vn -0.881449 0.000000 0.472279
vn 0.440189 0.018198 0.897721
vn -0.585945 0.018198 0.810147
vn -0.897720 0.018198 0.440190
vn -0.810148 0.018198 -0.585943
vn -0.440190 0.018198 -0.897721
vn 0.585941 0.018197 -0.810149
vn 0.897722 0.018197 -0.440186
vn 0.810147 0.018198 0.585945
s 1
g Tree1
f 12/83/1 14/18/2 15/172/3 4/171/4
f 68/183/5 66/184/6 67/74/7
f 16/20/8 17/22/9 11/126/10 6/127/11
f 20/29/12 21/30/13 16/21/8 6/10/11
f 18/23/14 24/33/15 19/25/16 5/12/17
f 5/125/17 11/126/10 17/22/9 18/24/14
f 70/181/18 66/182/6 65/76/19
f 13/147/20 14/18/2 12/83/1 3/84/21
f 1/148/22 9/13/23 14/18/2 13/147/20
f 15/172/3 14/18/2 9/13/23 2/2/24
f 21/30/13 22/31/25 8/9/26 16/21/8
f 10/14/27 17/22/9 16/20/8 8/8/26
f 18/24/14 17/22/9 10/14/27 7/7/28
f 7/11/28 23/32/29 24/33/15 18/23/14
f 71/179/30 66/180/6 69/78/31
f 73/178/32 66/27/6 72/80/33
f 15/19/3 21/30/13 20/29/12 4/82/4
f 2/173/24 22/31/25 21/30/13 15/19/3
f 24/33/15 23/32/29 1/1/22 13/17/20
f 19/25/16 24/33/15 13/17/20 3/146/21
f 20/28/12 6/133/11 27/132/34 26/118/35
f 6/6/11 11/15/10 25/123/36 27/124/34
f 11/15/10 5/139/17 29/138/37 25/123/36
f 5/5/17 19/26/16 28/121/38 29/122/37
f 3/3/21 12/16/1 31/119/39 30/120/40
f 19/26/16 3/142/21 30/143/40 28/121/38
f 12/16/1 4/140/4 32/141/41 31/119/39
f 4/4/4 20/28/12 26/118/35 32/117/41
f 26/34/35 27/128/34 35/129/42 34/86/43
f 27/35/34 25/36/36 33/91/44 35/92/42
f 25/36/36 29/134/37 37/135/45 33/91/44
f 29/37/37 28/38/38 36/89/46 37/90/45
f 30/39/40 31/40/39 39/87/47 38/88/48
f 28/38/38 30/144/40 38/145/48 36/89/46
f 31/40/39 32/154/41 40/153/49 39/87/47
f 32/41/41 26/34/35 34/86/43 40/85/49
f 34/42/43 35/130/42 43/131/50 42/110/51
f 35/43/42 33/44/44 41/115/52 43/116/50
f 33/44/44 37/136/45 45/137/53 41/115/52
f 37/45/45 36/46/46 44/113/54 45/114/53
f 38/47/48 39/48/47 47/111/55 46/112/56
f 36/46/46 38/168/48 46/167/56 44/113/54
f 39/48/47 40/149/49 48/150/57 47/111/55
f 40/49/49 34/42/43 42/110/51 48/109/57
f 42/50/51 43/155/50 51/156/58 50/94/59
f 43/51/50 41/52/52 49/99/60 51/100/58
f 41/52/52 45/159/53 53/160/61 49/99/60
f 45/53/53 44/54/54 52/97/62 53/98/61
f 46/55/56 47/56/55 55/95/63 54/96/64
f 44/54/54 46/163/56 54/164/64 52/97/62
f 47/56/55 48/151/57 56/152/65 55/95/63
f 48/57/57 42/50/51 50/94/59 56/93/65
f 50/58/59 51/157/58 59/158/66 58/102/67
f 51/59/58 49/60/60 57/107/68 59/108/66
f 49/60/60 53/161/61 61/162/69 57/107/68
f 53/61/61 52/62/62 60/105/70 61/106/69
f 54/63/64 55/64/63 63/103/71 62/104/72
f 52/62/62 54/165/64 62/166/72 60/105/70
f 55/64/63 56/169/65 64/170/73 63/103/71
f 56/65/65 50/58/59 58/102/67 64/101/73
f 58/66/67 59/174/66 68/183/5 67/74/7
f 59/67/66 57/68/68 65/76/19 68/75/5
f 57/68/68 61/175/69 70/181/18 65/76/19
f 61/69/69 60/70/70 69/78/31 70/77/18
f 62/71/72 63/72/71 72/80/33 71/79/30
f 60/70/70 62/177/72 71/179/30 69/78/31
f 63/72/71 64/176/73 73/178/32 72/80/33
f 64/73/73 58/66/67 67/74/7 73/81/32
f 71/79/30 72/80/33 66/27/6
f 69/78/31 66/180/6 70/77/18
f 65/76/19 66/182/6 68/75/5
f 67/74/7 66/184/6 73/81/32
s 7
f 111/185/74 112/186/75 99/187/76 100/188/77
f 103/189/78 104/190/79 107/191/80 108/192/81
f 109/193/82 110/194/83 101/195/84 102/196/85
f 113/197/86 106/198/87 105/199/88 98/200/89
f 98/201/89 99/202/76 112/203/75 113/204/86
f 100/205/77 101/206/84 110/207/83 111/208/74
f 106/209/87 107/210/80 104/211/79 105/212/88
f 108/213/81 109/214/82 102/215/85 103/216/78
f 115/217/90 116/218/91 91/219/92 90/220/93
f 116/221/91 117/222/94 92/223/95 91/224/92
f 93/225/96 92/226/95 117/227/94 118/228/97
f 118/229/97 119/230/98 94/231/99 93/232/96
f 119/233/98 120/234/100 95/235/101 94/236/99
f 96/237/102 95/238/101 120/239/100 121/240/103
f 121/241/103 114/242/104 97/243/105 96/244/102
f 90/245/93 97/246/105 114/247/104 115/248/90
f 123/249/106 122/250/107 124/251/108 125/252/109
f 100/188/77 99/187/76 75/253/110 79/254/111
f 127/255/112 126/256/113 128/257/114 129/258/115
f 102/196/85 101/195/84 78/259/116 88/260/117
f 131/261/118 130/262/119 132/263/120 133/264/121
f 85/265/122 104/190/79 103/189/78 89/266/123
f 135/267/124 134/268/125 136/269/126 137/270/127
f 98/200/89 105/199/88 84/271/128 74/272/129
f 91/224/92 92/223/95 107/210/80 106/209/87
f 108/192/81 107/191/80 92/226/95 93/225/96
f 93/232/96 94/231/99 109/214/82 108/213/81
f 94/236/99 95/235/101 110/194/83 109/193/82
f 111/208/74 110/207/83 95/238/101 96/237/102
f 96/244/102 97/243/105 112/186/75 111/185/74
f 113/204/86 112/203/75 97/246/105 90/245/93
f 90/220/93 91/219/92 106/198/87 113/197/86
f 115/248/90 114/247/104 77/273/130 76/274/131
f 82/275/132 116/218/91 115/217/90 76/276/131
f 82/277/132 83/278/133 117/222/94 116/221/91
f 118/228/97 117/227/94 83/279/133 86/280/134
f 86/281/134 87/282/135 119/230/98 118/229/97
f 80/283/136 120/234/100 119/233/98 87/284/135
f 121/240/103 120/239/100 80/285/136 81/286/137
f 77/287/130 114/242/104 121/241/103 81/288/137
f 75/253/110 99/187/76 124/289/108 122/290/107
f 99/202/76 98/201/89 125/252/109 124/251/108
f 98/200/89 74/272/129 123/291/106 125/292/109
f 78/259/116 101/195/84 128/293/114 126/294/113
f 101/206/84 100/205/77 129/258/115 128/257/114
f 100/188/77 79/254/111 127/295/112 129/296/115
f 103/216/78 102/215/85 130/262/119 131/261/118
f 102/196/85 88/260/117 132/297/120 130/298/119
f 89/266/123 103/189/78 131/299/118 133/300/121
f 105/212/88 104/211/79 134/268/125 135/267/124
f 104/190/79 85/265/122 136/301/126 134/302/125
f 84/271/128 105/199/88 135/303/124 137/304/127
